<?xml version="1.0" encoding="UTF-8"?>
<!DOCTYPE svg PUBLIC "-//W3C//DTD SVG 1.1//EN" "http://www.w3.org/Graphics/SVG/1.1/DTD/svg11.dtd">
<!-- Creator: CorelDRAW 2018 -->
<svg xmlns="http://www.w3.org/2000/svg" xml:space="preserve" width="250mm" height="250mm" version="1.1" style="shape-rendering:geometricPrecision; text-rendering:geometricPrecision; image-rendering:optimizeQuality; fill-rule:evenodd; clip-rule:evenodd"
viewBox="0 0 25000 25000"
 xmlns:xlink="http://www.w3.org/1999/xlink">
 <defs>
  <style type="text/css">
   <![CDATA[
    .str0 {stroke:#2B2A29;stroke-width:500;stroke-miterlimit:2.61313}
    .str1 {stroke:#2B2A29;stroke-width:20;stroke-miterlimit:2.61313}
    .fil0 {fill:none}
   ]]>
  </style>
 </defs>
 <g id="Слой_x0020_1">
  <metadata id="CorelCorpID_0Corel-Layer"/>
  <g id="_843626848">
   <path class="fil0 str0" d="M8183.24 1032.25c1342.56,-505.63 2797.36,-782.25 4316.76,-782.25 1518.47,0 2972.43,276.28 4314.3,781.31m2527.02 1305.55c3262.89,2200.73 5408.68,5931.35 5408.68,10163.14 0,6765.49 -5484.51,12250 -12250,12250 -6765.49,0 -12250,-5484.51 -12250,-12250 0,-4264.56 2179.16,-8020.17 5484.69,-10214"/>
   <line class="fil0 str1" x1="12500" y1="12500" x2="12422.71" y2= "12294.67" />
   <line class="fil0 str1" x1="16836.55" y1="972.19" x2="16814.29" y2= "1031.31" />
   <line class="fil0 str1" x1="12422.71" y1="12294.67" x2="12519.79" y2= "12439.95" />
   <line class="fil0 str1" x1="19377.61" y1="2282.56" x2="19341.32" y2= "2336.86" />
   <path class="fil0 str0" d="M16706.59 952.99c285.41,316.71 570.81,633.41 799.06,1091.28 228.26,457.87 399.35,1056.9 463.12,1675.89 63.77,618.98 20.2,1257.9 -74.18,1751.62 -94.39,493.72 -239.6,842.22 -413.86,1132.65 -174.24,290.42 -377.54,522.76 -609.88,718.8 -232.34,196.03 -493.72,355.76 -798.66,508.24 -304.95,152.46 -653.45,297.67 -1060.04,413.84 -406.59,116.17 -871.27,203.3 -1285.12,333.99 -413.86,130.69 -776.88,304.94 -1081.82,508.24 -304.95,203.29 -551.8,435.63 -718.79,733.32 -167,297.68 -254.13,660.7 -297.69,994.7 -43.56,333.98 -43.56,638.92 -43.56,900.29 0,261.39 0,479.2 0,697.02"/>
  </g>
 </g>
</svg>
