<?xml version="1.0" encoding="UTF-8"?>
<!DOCTYPE svg PUBLIC "-//W3C//DTD SVG 1.1//EN" "http://www.w3.org/Graphics/SVG/1.1/DTD/svg11.dtd">
<!-- Creator: CorelDRAW 2019 (64-Bit) -->
<svg xmlns="http://www.w3.org/2000/svg" xml:space="preserve" width="100%" height="100%" version="1.1" style="shape-rendering:geometricPrecision; text-rendering:geometricPrecision; image-rendering:optimizeQuality; fill-rule:evenodd; clip-rule:evenodd"
viewBox="0 0 465.66 465.66"
 xmlns:xlink="http://www.w3.org/1999/xlink"
 xmlns:xodm="http://www.corel.com/coreldraw/odm/2003">
 <defs>
  <style type="text/css">
   <![CDATA[
    .fil0 {fill:gold}
   ]]>
  </style>
 </defs>
 <g id="Слой_x0020_1">
  <metadata id="CorelCorpID_0Corel-Layer"/>
  <g id="_2441167292672">
   <path class="fil0" d="M201.97 235.43c-0.99,-0.16 -2.43,0.65 -2.94,-0.45 -0.18,-0.37 -0.47,-0.48 -0.88,-1.23l3.32 -0.77c25.56,-1.32 31.99,-9.59 55.8,-25 8.9,-5.76 15.6,-9.94 24.49,-15.43 6.6,-4.08 19.27,-12.46 26.44,-14.76 -0.55,37.82 1.86,66.89 13.39,101.94 3.45,10.5 7.88,17.85 11.54,26.92l-174.02 62.34c3.81,1.94 4.6,0.14 8.6,2.67 17.6,1.04 32.13,24.41 19.83,41 -11.64,15.72 -36.3,10.73 -50.36,-0.62 -23.29,-18.79 -39.82,-53.7 -47.43,-94.79 -13.9,-75.05 9.66,-146.33 -22.04,-223.69 -3.96,-9.67 -8.3,-15.82 -12.34,-24.18l199.04 -18.05c21.18,-2.09 33.45,15.58 38.85,33.12 -32.71,18.41 -78.41,64.67 -99.57,96 -5.36,7.94 -1.68,15.92 -2.72,26.15l-5.27 -13.47c-10.39,18.8 -5.82,9.37 -8.07,32.19l-5.72 -6.11c-4.15,8.77 -4.85,9.88 -1.81,18.81 -2.5,1.36 -5.29,-0.08 -5.61,7.55 -0.29,7.09 0.75,6.25 -2.79,11.44 -3.72,5.45 -7.45,10.79 -10.86,16.57 -6.27,10.64 -15.06,24.16 -17.91,37.17 4.62,-2.6 29.98,-40.26 36.38,-48.63 6.15,-8.06 10.72,-3.44 31.82,-16.81l9.02 -5.94c1.99,-1.67 1.43,-1.2 2.73,-2.71l-10.91 -1.23zm121.55 -66.65c16.1,-11.63 58.18,-29.02 79,-37.42 94.77,-38.28 65.18,-112.32 -17.88,-91.47 -13.21,3.32 -29.67,10.26 -41.16,16.1l-37.54 19.91c-3.15,-2.92 -4.09,-6.64 -6.66,-10.92 -22.13,-36.97 -47.2,-27.12 -81.82,-24.27l-180.59 15.26c-64.7,5.25 -43.59,80.94 -1.26,81.35 9.13,0.09 20.95,-4.24 29.26,-2.42 1.23,7.98 2.33,15.4 3.24,23.26 6.11,52.24 -5.75,106.25 7.86,169.19 9.18,42.47 37.98,112.41 91.74,110.48 22.56,-0.81 114.86,-47.17 142.29,-59.73 11.93,-5.47 23.12,-10.32 35.14,-15.95 8.23,-3.85 27.83,-11.24 34.11,-15.76 10.27,-7.39 13.58,-23.99 5.48,-36.29 -8.63,-13.11 -20.46,-11.92 -37.06,-8.1 -3.2,-8.52 -7.96,-17.67 -11.68,-27.96 -9.44,-26.15 -15.56,-80.47 -12.47,-105.26z"/>
   <path class="fil0" d="M167.71 371.66c-4,-2.53 -4.79,-0.73 -8.6,-2.67l-5.19 2.02 13.79 0.65z"/>
   <path class="fil0" d="M201.97 235.43l-0.5 -2.45 -3.32 0.77c0.41,0.75 0.7,0.86 0.88,1.23 0.51,1.1 1.95,0.29 2.94,0.45z"/>
  </g>
 </g>
</svg>
