<?xml version="1.0" encoding="UTF-8"?>
<!DOCTYPE svg PUBLIC "-//W3C//DTD SVG 1.1//EN" "http://www.w3.org/Graphics/SVG/1.1/DTD/svg11.dtd">
<!-- Creator: CorelDRAW 2019 (64-Bit) -->
<svg xmlns="http://www.w3.org/2000/svg" xml:space="preserve" width="100%" height="100%" version="1.1" style="shape-rendering:geometricPrecision; text-rendering:geometricPrecision; image-rendering:optimizeQuality; fill-rule:evenodd; clip-rule:evenodd"
viewBox="0 0 5500 5500"
 xmlns:xlink="http://www.w3.org/1999/xlink"
 xmlns:xodm="http://www.corel.com/coreldraw/odm/2003">
 <defs>
  <style type="text/css">
   <![CDATA[
    .fil1 {fill:#0A0A0A}
    .fil0 {fill:gold}
   ]]>
  </style>
 </defs>
 <g id="Слой_x0020_1">
  <metadata id="CorelCorpID_0Corel-Layer"/>
  <circle class="fil0" cx="2748.33" cy="2751.67" r="2750"/>
 </g>
 <g id="Слой_x0020_1_0">
  <metadata id="CorelCorpID_1Corel-Layer"/>
  <g id="_2441167292672">
   <path class="fil1" d="M2543.75 2994.51c-8.5,-1.38 -20.87,5.58 -25.25,-3.86 -1.55,-3.18 -4.04,-4.13 -7.56,-10.57l28.51 -6.61c219.56,-11.34 274.79,-82.38 479.31,-214.75 76.45,-49.48 134,-85.38 210.37,-132.54 56.69,-35.05 165.52,-107.03 227.11,-126.78 -4.72,324.86 15.98,574.57 115.02,875.64 29.63,90.19 67.69,153.33 99.12,231.24l-1494.79 535.48c32.72,16.67 39.51,1.21 73.87,22.94 151.18,8.93 275.99,209.67 170.34,352.18 -99.99,135.03 -311.81,92.17 -432.59,-5.33 -200.05,-161.4 -342.04,-461.27 -407.41,-814.22 -119.4,-644.67 82.98,-1256.95 -189.32,-1921.45 -34.01,-83.06 -71.29,-135.89 -105.99,-207.7l1709.71 -155.05c181.93,-17.95 287.32,133.83 333.71,284.5 -280.97,158.13 -673.53,555.5 -855.29,824.61 -46.04,68.21 -14.43,136.75 -23.36,224.63l-45.27 -115.71c-89.25,161.49 -49.99,80.49 -69.32,276.51l-49.13 -52.49c-35.65,75.34 -41.66,84.87 -15.55,161.58 -21.47,11.68 -45.44,-0.69 -48.19,64.85 -2.49,60.9 6.44,53.69 -23.97,98.27 -31.95,46.81 -63.99,92.68 -93.28,142.33 -53.86,91.4 -129.36,207.53 -153.84,319.28 39.68,-22.33 257.52,-345.82 312.49,-417.72 52.83,-69.23 92.09,-29.55 273.33,-144.39l77.48 -51.03c17.09,-14.34 12.28,-10.31 23.45,-23.27l-93.71 -10.57 0 0zm1044.09 -572.51c138.29,-99.9 499.75,-249.27 678.59,-321.43 814.06,-328.81 559.88,-964.8 -153.58,-785.71 -113.48,28.52 -254.86,88.13 -353.56,138.3l-322.46 171.02c-27.06,-25.08 -35.13,-57.03 -57.21,-93.8 -190.09,-317.56 -405.43,-232.95 -702.81,-208.47l-1551.23 131.08c-555.76,45.09 -374.43,695.25 -10.83,698.78 78.43,0.77 179.96,-36.42 251.34,-20.79 10.57,68.55 20.02,132.28 27.83,199.8 52.49,448.73 -49.39,912.66 67.52,1453.3 78.85,364.81 326.24,965.58 788.02,949 193.79,-6.96 986.63,-405.18 1222.24,-513.07 102.48,-46.98 198.6,-88.64 301.85,-137 70.69,-33.07 239.05,-96.55 293,-135.38 88.22,-63.48 116.65,-206.06 47.07,-311.72 -74.13,-112.61 -175.75,-102.39 -318.34,-69.58 -27.49,-73.18 -68.37,-151.78 -100.33,-240.17 -81.09,-224.62 -133.65,-691.22 -107.11,-904.16z"/>
   <path class="fil1" d="M2249.46 4164.7c-34.36,-21.73 -41.14,-6.27 -73.87,-22.94l-44.58 17.36 118.45 5.58z"/>
   <path class="fil1" d="M2543.75 2994.51l-4.3 -21.05 -28.51 6.62c3.52,6.44 6.01,7.38 7.56,10.56 4.38,9.45 16.75,2.49 25.25,3.87l0 0z"/>
  </g>
 </g>
</svg>
